<svg width="86" height="78" viewBox="0 0 86 78" fill="none" xmlns="http://www.w3.org/2000/svg">
<ellipse cx="42.5045" cy="47.3572" rx="30.6529" ry="30.6426" fill="#A5D8AA"/>
<ellipse cx="42.5013" cy="47.3571" rx="23.8412" ry="23.8331" fill="#30AF46"/>
<path d="M31.4355 45.7579L40.5908 54.3822L55.1549 39.6968" stroke="white" stroke-width="4.39433" stroke-linecap="round" stroke-linejoin="round"/>
<path fill-rule="evenodd" clip-rule="evenodd" d="M59.2188 9.05306V9.05367C63.6 9.05498 67.1934 12.4254 67.5475 16.7142H67.6019C67.9559 12.4246 71.5507 9.05367 75.9331 9.05367C75.9349 9.05367 75.9367 9.05367 75.9385 9.05367V9.05306C75.9367 9.05306 75.9349 9.05306 75.9331 9.05306C71.3683 9.05306 67.6579 5.39557 67.5747 0.852138C67.4914 5.39472 63.7824 9.0517 59.2188 9.05306ZM67.6018 0C67.5871 0.178413 67.578 0.358414 67.5747 0.539828C67.5713 0.358414 67.5622 0.178413 67.5475 0H67.6018Z" fill="#30AF46"/>
<path fill-rule="evenodd" clip-rule="evenodd" d="M73.1484 27.8568C76.61 27.8554 79.4158 25.0498 79.4158 21.589C79.4158 21.3535 79.4028 21.1211 79.3775 20.8923H79.4578C79.4325 21.1211 79.4195 21.3535 79.4195 21.589C79.4195 25.0503 82.226 27.8562 85.6883 27.8568V27.8573C82.4617 27.8579 79.8047 30.2948 79.4579 33.4279H79.3774C79.0306 30.2953 76.3743 27.8586 73.1484 27.8573V27.8568Z" fill="#30AF46"/>
<path fill-rule="evenodd" clip-rule="evenodd" d="M6.26783 64.2488C6.1737 67.6282 3.4037 70.3389 0.000384611 70.3389C0.000256406 70.3389 0.000128203 70.3389 0 70.3389V70.3394C8.97384e-05 70.3394 0.000179477 70.3394 0.000269216 70.3394C3.22735 70.3394 5.88501 72.7766 6.23185 75.9101H6.30369C6.65053 72.7766 9.30819 70.3394 12.5353 70.3394C12.5368 70.3394 12.5383 70.3394 12.5398 70.3394V70.3389C12.5383 70.3389 12.5368 70.3389 12.5353 70.3389C9.13194 70.3389 6.36194 67.6283 6.26783 64.2488ZM6.30364 63.3745H6.23202C6.25093 63.5455 6.26296 63.7185 6.26783 63.8934C6.2727 63.7185 6.28473 63.5455 6.30364 63.3745Z" fill="#30AF46"/>
</svg>
